<?xml version="1.0" encoding="UTF-8" standalone="no"?>
<svg
   width="560pt"
   height="560pt"
   version="1.1"
   viewBox="0 0 560 560"
   id="svg186"
   sodipodi:docname="icon.svg"
   inkscape:export-filename="C:\Users\egger\Workspace\MusiScore\icon-64.png"
   inkscape:export-xdpi="8.2299995"
   inkscape:export-ydpi="8.2299995"
   inkscape:version="1.1.2 (0a00cf5339, 2022-02-04, custom)"
   xmlns:inkscape="http://www.inkscape.org/namespaces/inkscape"
   xmlns:sodipodi="http://sodipodi.sourceforge.net/DTD/sodipodi-0.dtd"
   xmlns="http://www.w3.org/2000/svg"
   xmlns:svg="http://www.w3.org/2000/svg">
  <sodipodi:namedview
     id="namedview188"
     pagecolor="#ffffff"
     bordercolor="#666666"
     borderopacity="1.0"
     inkscape:pageshadow="2"
     inkscape:pageopacity="0.0"
     inkscape:pagecheckerboard="true"
     inkscape:document-units="pt"
     showgrid="false"
     fit-margin-top="0"
     fit-margin-left="0"
     fit-margin-right="0"
     fit-margin-bottom="0"
     inkscape:zoom="1.5407143"
     inkscape:cx="378.39592"
     inkscape:cy="360.54706"
     inkscape:window-width="2560"
     inkscape:window-height="1346"
     inkscape:window-x="-11"
     inkscape:window-y="-11"
     inkscape:window-maximized="1"
     inkscape:current-layer="svg186" />
  <defs
     id="defs74">
    <symbol
       id="x"
       overflow="visible">
      <path
         d="M 9.375,-0.5625 C 8.89453,-0.3125 8.39062,-0.125 7.8594,0 7.33596,0.13281 6.7969,0.20312 6.2344,0.20312 c -1.7109,0 -3.0586,-0.47266 -4.0469,-1.4219 -0.99219,-0.95703 -1.4844,-2.25 -1.4844,-3.875 0,-1.6328 0.49219,-2.9258 1.4844,-3.875 0.98828,-0.94531 2.3359,-1.4219 4.0469,-1.4219 0.5625,0 1.1016,0.0625 1.625,0.1875 0.53125,0.125 1.0352,0.32031 1.5156,0.57812 v 2.1094 C 8.88281,-7.84769 8.39844,-8.09378 7.9219,-8.25004 7.45315,-8.40629 6.95706,-8.48442 6.4375,-8.48442 c -0.9375,0 -1.6797,0.30469 -2.2188,0.90625 -0.53125,0.60547 -0.79688,1.4336 -0.79688,2.4844 0,1.0547 0.26562,1.8828 0.79688,2.4844 0.53906,0.60547 1.2812,0.90625 2.2188,0.90625 0.51953,0 1.0156,-0.078125 1.4844,-0.23438 0.47656,-0.15625 0.96094,-0.39844 1.4531,-0.73438 z"
         id="path2" />
    </symbol>
    <symbol
       id="d"
       overflow="visible">
      <path
         d="M 6.8594,-5.5781 C 6.64846,-5.67185 6.43752,-5.73826 6.21878,-5.78122 6.00784,-5.832001 5.7969,-5.859345 5.57816,-5.859345 c -0.625,0 -1.1094,0.20312 -1.4531,0.60938 -0.33594,0.39844 -0.5,0.96875 -0.5,1.7188 v 3.5312 h -2.4531 v -7.6562 h 2.4531 v 1.25 c 0.3125,-0.5 0.67188,-0.86328 1.0781,-1.0938 0.40625,-0.22656 0.89453,-0.34375 1.4688,-0.34375 0.082031,0 0.17188,0.00781 0.26562,0.015625 0.09375,0 0.23438,0.015625 0.42188,0.046875 z"
         id="path5" />
    </symbol>
    <symbol
       id="a"
       overflow="visible">
      <path
         d="m 8.8125,-3.8438 v 0.6875 H 3.0937 c 0.0625,0.57422 0.26953,1.0078 0.625,1.2969 0.35156,0.29297 0.84766,0.4375 1.4844,0.4375 0.51953,0 1.0508,-0.078125 1.5938,-0.23438 0.53906,-0.15625 1.0938,-0.39062 1.6562,-0.70312 v 1.8906 c -0.57422,0.21875 -1.1523,0.38672 -1.7344,0.5 -0.57422,0.11328 -1.1523,0.17188 -1.7344,0.17188 -1.3867,0 -2.4648,-0.35156 -3.2344,-1.0625 -0.76172,-0.70703 -1.1406,-1.6953 -1.1406,-2.9688 0,-1.2383 0.375,-2.2188 1.125,-2.9375 0.75,-0.7187 1.7852,-1.0781 3.1094,-1.0781 1.207,0 2.1719,0.36719 2.8906,1.0938 0.71875,0.71875 1.0781,1.6875 1.0781,2.9062 z M 6.2969,-4.6563 c 0,-0.46875 -0.13672,-0.84375 -0.40625,-1.125 -0.27344,-0.28906 -0.625,-0.4375 -1.0625,-0.4375 -0.46875,0 -0.85547,0.13672 -1.1562,0.40625 -0.29297,0.26172 -0.47656,0.64844 -0.54688,1.1562 z"
         id="path8" />
    </symbol>
    <symbol
       id="c"
       overflow="visible">
      <path
         d="m 4.6094,-3.4531 c -0.51172,0 -0.89844,0.089844 -1.1562,0.26562 -0.26172,0.17969 -0.39062,0.43359 -0.39062,0.76562 0,0.3125 0.10156,0.55859 0.3125,0.73438 0.20703,0.17969 0.5,0.26562 0.875,0.26562 0.45703,0 0.84375,-0.16406 1.1562,-0.5 0.3125,-0.33203 0.46875,-0.75 0.46875,-1.25 V -3.45311 Z M 8.3438,-4.37498 V 2e-5 H 5.875 v -1.1406 c -0.32422,0.46875 -0.69531,0.8125 -1.1094,1.0312 -0.40625,0.20703 -0.90234,0.3125 -1.4844,0.3125 -0.80469,0 -1.4492,-0.22656 -1.9375,-0.6875 -0.49219,-0.46875 -0.73438,-1.0703 -0.73438,-1.8125 0,-0.89453 0.30469,-1.5508 0.92188,-1.9688 0.61328,-0.42578 1.582,-0.64062 2.9062,-0.64062 h 1.4375 v -0.1875 c 0,-0.38281 -0.15234,-0.66406 -0.45312,-0.84375 -0.30469,-0.1875 -0.77734,-0.28125 -1.4219,-0.28125 -0.53125,0 -1.0234,0.054688 -1.4688,0.15625 -0.44922,0.10547 -0.87109,0.26562 -1.2656,0.48438 v -1.875 c 0.53125,-0.125 1.0547,-0.21875 1.5781,-0.28125 0.53125,-0.070313 1.0625,-0.10938 1.5938,-0.10938 1.3828,0 2.3789,0.27734 2.9844,0.82812 0.61328,0.54297 0.92188,1.4219 0.92188,2.6406 z"
         id="path11" />
    </symbol>
    <symbol
       id="b"
       overflow="visible">
      <path
         d="m 3.8438,-9.8281 v 2.1719 H 6.375 v 1.75 H 3.8438 v 3.25 c 0,0.35547 0.066406,0.59375 0.20312,0.71875 0.14453,0.125 0.42969,0.1875 0.85938,0.1875 h 1.25 V 5e-5 H 4.0625 C 3.09375,5e-5 2.4063,-0.19526 2,-0.5937 1.60156,-0.99995 1.40625,-1.6875 1.40625,-2.6562 v -3.25 h -1.2188 v -1.75 h 1.2188 v -2.1719 z"
         id="path14" />
    </symbol>
    <symbol
       id="m"
       overflow="visible">
      <path
         d="m 6.3906,-6.5312 v -4.1094 H 8.8437 V 4e-4 H 6.3906 V -1.109 c -0.34375,0.44922 -0.71875,0.78125 -1.125,1 -0.40625,0.20703 -0.875,0.3125 -1.4062,0.3125 -0.9375,0 -1.7148,-0.375 -2.3281,-1.125 -0.60547,-0.75 -0.90625,-1.7188 -0.90625,-2.9062 0,-1.1758 0.30078,-2.1406 0.90625,-2.8906 0.61328,-0.75 1.3906,-1.125 2.3281,-1.125 0.53125,0 1,0.10938 1.4062,0.32812 0.40625,0.21094 0.78125,0.53906 1.125,0.98438 z m -1.625,4.9531 c 0.53125,0 0.92969,-0.19141 1.2031,-0.57812 0.28125,-0.38281 0.42188,-0.94141 0.42188,-1.6719 0,-0.72656 -0.14062,-1.2812 -0.42188,-1.6562 -0.27344,-0.38281 -0.67188,-0.57812 -1.2031,-0.57812 -0.51172,0 -0.90625,0.19531 -1.1875,0.57812 -0.27344,0.375 -0.40625,0.92969 -0.40625,1.6562 0,0.73047 0.13281,1.2891 0.40625,1.6719 0.28125,0.38672 0.67578,0.57812 1.1875,0.57812 z"
         id="path17" />
    </symbol>
    <symbol
       id="l"
       overflow="visible">
      <path
         d="m 5.25,-1.5781 c 0.51953,0 0.91406,-0.19141 1.1875,-0.57812 0.28125,-0.38281 0.42188,-0.94141 0.42188,-1.6719 0,-0.72656 -0.14062,-1.2812 -0.42188,-1.6562 C 6.16406,-5.86713 5.76953,-6.06244 5.25,-6.06244 c -0.52344,0 -0.92188,0.19531 -1.2031,0.57812 -0.28125,0.38672 -0.42188,0.9375 -0.42188,1.6562 0,0.73047 0.14062,1.2891 0.42188,1.6719 C 4.32815,-1.7695 4.72659,-1.5781 5.25,-1.5781 Z M 3.625,-6.5312 c 0.33203,-0.44531 0.70312,-0.77344 1.1094,-0.98438 0.41406,-0.21875 0.89062,-0.32812 1.4219,-0.32812 0.94531,0 1.7227,0.375 2.3281,1.125 0.60156,0.75 0.90625,1.7148 0.90625,2.8906 0,1.1875 -0.30469,2.1562 -0.90625,2.9062 -0.60547,0.75 -1.3828,1.125 -2.3281,1.125 -0.53125,0 -1.0078,-0.10547 -1.4219,-0.3125 -0.40625,-0.21875 -0.77734,-0.55078 -1.1094,-1 V 0 H 1.1719 V -10.641 H 3.625 Z"
         id="path20" />
    </symbol>
    <symbol
       id="k"
       overflow="visible">
      <path
         d="m 0.17188,-7.6562 h 2.4531 l 2.0469,5.1875 1.75,-5.1875 h 2.4531 l -3.2188,8.375 C 5.33196,1.57036 4.95306,2.1641 4.51558,2.5 4.08589,2.84375 3.51949,3.01562 2.81248,3.01562 H 1.40628 V 1.42182 H 2.1719 c 0.41406,0 0.71875,-0.070313 0.90625,-0.20312 0.1875,-0.13672 0.33203,-0.375 0.4375,-0.71875 l 0.0625,-0.20312 z"
         id="path23" />
    </symbol>
    <symbol
       id="j"
       overflow="visible">
      <path
         d="m 1.2812,-10.203 h 3.3594 l 2.3125,5.4531 2.3438,-5.4531 h 3.3438 V 0 h -2.4844 v -7.4688 l -2.3594,5.5 H 6.125 l -2.3438,-5.5 V 0 h -2.5 z"
         id="path26" />
    </symbol>
    <symbol
       id="w"
       overflow="visible">
      <path
         d="M 3.1094,-3.9219 0.3438,-7.6563 h 2.5938 l 1.5625,2.2656 1.5938,-2.2656 H 8.6877 L 5.9221,-3.9375 8.8127,0 H 6.2346 L 4.5002,-2.4219 2.7971,0 H 0.219 Z"
         id="path29" />
    </symbol>
    <symbol
       id="f"
       overflow="visible">
      <path
         d="M 1.1719,-7.6562 H 3.625 V 0 H 1.1719 Z m 0,-2.9844 H 3.625 v 2 H 1.1719 Z"
         id="path32" />
    </symbol>
    <symbol
       id="i"
       overflow="visible">
      <path
         d="m 8.2656,-6.3906 c 0.3125,-0.46875 0.67969,-0.82812 1.1094,-1.0781 0.42578,-0.25 0.89453,-0.375 1.4062,-0.375 0.875,0 1.5391,0.27344 2,0.8125 0.46875,0.54297 0.70312,1.3359 0.70312,2.375 V 0 h -2.4688 v -4 c 0.0078,-0.050781 0.01563,-0.10938 0.01563,-0.17188 v -0.28125 c 0,-0.53906 -0.07813,-0.92969 -0.23438,-1.1719 -0.15625,-0.25 -0.41797,-0.375 -0.78125,-0.375 -0.46094,0 -0.82031,0.19531 -1.0781,0.57812 -0.25,0.38672 -0.38281,0.9375 -0.39062,1.6562 v 3.7656 H 6.0937 v -4 c 0,-0.84375 -0.074219,-1.3828 -0.21875,-1.625 -0.14844,-0.25 -0.40625,-0.375 -0.78125,-0.375 -0.46875,0 -0.83594,0.19531 -1.0938,0.57812 -0.25,0.38672 -0.375,0.9375 -0.375,1.6562 v 3.7656 H 1.1561 v -7.6562 h 2.4688 v 1.125 c 0.30078,-0.4375 0.64453,-0.76562 1.0312,-0.98438 0.39453,-0.21875 0.82812,-0.32812 1.2969,-0.32812 0.51953,0 0.98438,0.13281 1.3906,0.39062 0.40625,0.25 0.71094,0.60547 0.92188,1.0625 z"
         id="path35" />
    </symbol>
    <symbol
       id="v"
       overflow="visible">
      <path
         d="m 5.375,-6.25 c 0.41406,0 0.72656,-0.085938 0.9375,-0.26562 0.21875,-0.1875 0.32812,-0.45703 0.32812,-0.8125 0,-0.35156 -0.10938,-0.625 -0.32812,-0.8125 C 6.10156,-8.32812 5.78906,-8.42187 5.375,-8.42187 H 3.9219 v 2.1719 z m 0.09375,4.4531 c 0.51953,0 0.91406,-0.10938 1.1875,-0.32812 0.26953,-0.22656 0.40625,-0.56641 0.40625,-1.0156 0,-0.4375 -0.13672,-0.76562 -0.40625,-0.98438 C 6.39453,-4.35156 6,-4.46875 5.46875,-4.46875 h -1.5469 v 2.6719 z m 2.4375,-3.6719 c 0.5625,0.16797 1,0.47656 1.3125,0.92188 0.3125,0.4375 0.46875,0.98047 0.46875,1.625 0,0.98047 -0.33594,1.7148 -1,2.2031 C 8.01953,-0.23835 7.0078,-7e-5 5.6563,-7e-5 h -4.375 v -10.203 h 3.9531 c 1.4141,0 2.4414,0.21484 3.0781,0.64062 0.63281,0.42969 0.95312,1.1172 0.95312,2.0625 0,0.49219 -0.11719,0.91406 -0.34375,1.2656 -0.23047,0.34375 -0.57031,0.60156 -1.0156,0.76562 z"
         id="path38" />
    </symbol>
    <symbol
       id="h"
       overflow="visible">
      <path
         d="m 7.1562,-7.4219 v 1.8594 C 6.63276,-5.78125 6.1289,-5.94141 5.6406,-6.04688 5.14841,-6.16016 4.69138,-6.21876 4.2656,-6.21876 c -0.46875,0 -0.82031,0.0625 -1.0469,0.1875 -0.21875,0.11719 -0.32812,0.29297 -0.32812,0.53125 0,0.19922 0.082031,0.35156 0.25,0.45312 0.16406,0.10547 0.47266,0.18359 0.92188,0.23438 l 0.42188,0.046875 c 1.2578,0.16797 2.1016,0.43359 2.5312,0.79688 0.4375,0.36719 0.65625,0.9375 0.65625,1.7188 0,0.8125 -0.30469,1.4297 -0.90625,1.8438 -0.60547,0.40625 -1.5,0.60938 -2.6875,0.60938 -0.51172,0 -1.0391,-0.042969 -1.5781,-0.125 -0.53125,-0.082031 -1.0859,-0.20312 -1.6562,-0.35938 v -1.8594 c 0.48828,0.24219 0.98828,0.42188 1.5,0.54688 0.50781,0.11719 1.0312,0.17188 1.5625,0.17188 0.47656,0 0.83594,-0.066406 1.0781,-0.20312 0.23828,-0.13281 0.35938,-0.33203 0.35938,-0.59375 0,-0.21875 -0.085938,-0.37891 -0.25,-0.48438 -0.16797,-0.10156 -0.49609,-0.1875 -0.98438,-0.25 l -0.4375,-0.0625 c -1.0938,-0.13281 -1.8594,-0.38281 -2.2969,-0.75 -0.4375,-0.375 -0.65625,-0.9375 -0.65625,-1.6875 0,-0.8125 0.27344,-1.4102 0.82812,-1.7969 0.5625,-0.39453 1.4141,-0.59375 2.5625,-0.59375 0.45703,0 0.92969,0.039062 1.4219,0.10938 0.5,0.0625 1.0391,0.16797 1.625,0.3125 z"
         id="path41" />
    </symbol>
    <symbol
       id="g"
       overflow="visible">
      <path
         d="M 8.875,-4.6562 V 0 H 6.4062 v -3.5625 c 0,-0.66406 -0.015625,-1.125 -0.046875,-1.375 -0.023437,-0.25 -0.070313,-0.42969 -0.14062,-0.54688 -0.09375,-0.16406 -0.22656,-0.28906 -0.39062,-0.375 C 5.660115,-5.95313 5.472615,-6 5.265585,-6 c -0.51172,0 -0.91406,0.19922 -1.2031,0.59375 -0.29297,0.39844 -0.4375,0.94531 -0.4375,1.6406 V -5e-5 h -2.4531 v -7.6562 h 2.4531 v 1.125 c 0.36328,-0.44531 0.75391,-0.77344 1.1719,-0.98438 0.41406,-0.21875 0.875,-0.32812 1.375,-0.32812 0.88281,0 1.5547,0.27344 2.0156,0.8125 0.45703,0.54297 0.6875,1.3359 0.6875,2.375 z"
         id="path44" />
    </symbol>
    <symbol
       id="u"
       overflow="visible">
      <path
         d="M 1.1719,-10.641 H 3.625 v 5.7969 L 6.4375,-7.6566 H 9.2813 L 5.5469,-4.141 9.5781,-4e-4 H 6.6093 L 3.6249,-3.1879 V -4e-4 H 1.1718 Z"
         id="path47" />
    </symbol>
    <symbol
       id="t"
       overflow="visible">
      <path
         d="m 6.2188,-10.641 v 1.6094 H 4.8594 c -0.34375,0 -0.58594,0.0625 -0.71875,0.1875 -0.13672,0.125 -0.20312,0.34375 -0.20312,0.65625 v 0.53125 h 2.0781 v 1.75 H 3.93753 V -4e-4 h -2.4531 v -5.9062 h -1.2188 v -1.75 h 1.2188 v -0.53125 c 0,-0.83203 0.22656,-1.4453 0.6875,-1.8438 0.46875,-0.40625 1.1914,-0.60938 2.1719,-0.60938 z"
         id="path50" />
    </symbol>
    <symbol
       id="e"
       overflow="visible">
      <path
         d="m 4.8125,-6.0938 c -0.54297,0 -0.95312,0.19922 -1.2344,0.59375 -0.28125,0.38672 -0.42188,0.94531 -0.42188,1.6719 0,0.74219 0.14062,1.3086 0.42188,1.7031 0.28125,0.38672 0.69141,0.57812 1.2344,0.57812 0.53906,0 0.95312,-0.19141 1.2344,-0.57812 0.28125,-0.39453 0.42188,-0.96094 0.42188,-1.7031 0,-0.72656 -0.14062,-1.2852 -0.42188,-1.6719 C 5.76565,-5.89458 5.35159,-6.0938 4.8125,-6.0938 Z m 0,-1.75 c 1.3203,0 2.3516,0.35938 3.0938,1.0781 0.73828,0.71094 1.1094,1.6875 1.1094,2.9375 0,1.2617 -0.37109,2.25 -1.1094,2.9688 C 7.16411,-0.14846 6.1329,0.2031 4.8125,0.2031 3.5,0.2031 2.4687,-0.14846 1.7187,-0.8594 0.97651,-1.57815 0.6093,-2.5664 0.6093,-3.8282 c 0,-1.25 0.36719,-2.2266 1.1094,-2.9375 0.75,-0.71875 1.7812,-1.0781 3.0938,-1.0781 z"
         id="path53" />
    </symbol>
    <symbol
       id="s"
       overflow="visible">
      <path
         d="M 8.875,-4.6562 V 0 H 6.4062 v -3.5625 c 0,-0.66406 -0.015625,-1.125 -0.046875,-1.375 -0.023437,-0.25 -0.070313,-0.42969 -0.14062,-0.54688 -0.09375,-0.16406 -0.22656,-0.28906 -0.39062,-0.375 C 5.660115,-5.95313 5.472615,-6 5.265585,-6 c -0.51172,0 -0.91406,0.19922 -1.2031,0.59375 -0.29297,0.39844 -0.4375,0.94531 -0.4375,1.6406 V -5e-5 h -2.4531 v -10.641 h 2.4531 v 4.1094 c 0.36328,-0.44531 0.75391,-0.77344 1.1719,-0.98438 0.41406,-0.21875 0.875,-0.32812 1.375,-0.32812 0.88281,0 1.5547,0.27344 2.0156,0.8125 0.45703,0.54297 0.6875,1.3359 0.6875,2.375 z"
         id="path56" />
    </symbol>
    <symbol
       id="r"
       overflow="visible">
      <path
         d="m 1.2812,-10.203 h 2.9375 l 3.7188,7 v -7 h 2.5 V 0 H 7.5 L 3.7812,-7 v 7 h -2.5 z"
         id="path59" />
    </symbol>
    <symbol
       id="q"
       overflow="visible">
      <path
         d="m 1.0938,-2.9844 v -4.6719 h 2.4688 v 0.76562 c 0,0.41797 -0.00781,0.9375 -0.015625,1.5625 v 1.25 c 0,0.61719 0.015625,1.0586 0.046875,1.3281 0.03125,0.27344 0.082031,0.46875 0.15625,0.59375 0.10156,0.15625 0.23438,0.28125 0.39062,0.375 0.16406,0.085938 0.35156,0.125 0.5625,0.125 0.50781,0 0.91016,-0.19141 1.2031,-0.57812 0.28906,-0.39453 0.4375,-0.94141 0.4375,-1.6406 v -3.7812 h 2.4531 V -5e-5 h -2.4531 v -1.1094 c -0.36719,0.44922 -0.75781,0.78125 -1.1719,1 -0.41797,0.20703 -0.87109,0.3125 -1.3594,0.3125 -0.88672,0 -1.5625,-0.26953 -2.0312,-0.8125 -0.46094,-0.53906 -0.6875,-1.332 -0.6875,-2.375 z"
         id="path62" />
    </symbol>
    <symbol
       id="p"
       overflow="visible">
      <path
         d="m 1.2812,-10.203 h 4.375 c 1.3008,0 2.2969,0.28906 2.9844,0.85938 0.69531,0.57422 1.0469,1.3984 1.0469,2.4688 0,1.0742 -0.35156,1.8984 -1.0469,2.4688 C 7.9531,-3.8318 6.957,-3.54664 5.6562,-3.54664 H 3.9218 V 2.6e-4 H 1.2812 Z m 2.6406,1.9062 v 2.8438 h 1.4531 c 0.50781,0 0.89844,-0.11719 1.1719,-0.35938 0.28125,-0.25 0.42188,-0.60156 0.42188,-1.0625 0,-0.45703 -0.14062,-0.80469 -0.42188,-1.0469 -0.27344,-0.25 -0.66406,-0.375 -1.1719,-0.375 z"
         id="path65" />
    </symbol>
    <symbol
       id="o"
       overflow="visible">
      <path
         d="M 1.1719,-7.6562 H 3.625 v 7.5156 c 0,1.0312 -0.25,1.8125 -0.75,2.3438 C 2.38281,2.74226 1.6758,3.0157 0.75,3.0157 H -0.4688 V 1.4219 h 0.42188 c 0.46875,0 0.78516,-0.10938 0.95312,-0.32812 0.17578,-0.21094 0.26562,-0.62109 0.26562,-1.2344 z m 0,-2.9844 H 3.625 v 2 H 1.1719 Z"
         id="path68" />
    </symbol>
    <symbol
       id="n"
       overflow="visible">
      <path
         d="m 7.3594,-7.4219 v 2 c -0.33594,-0.22656 -0.66797,-0.39453 -1,-0.5 -0.33594,-0.11328 -0.68359,-0.17188 -1.0469,-0.17188 -0.67969,0 -1.2109,0.20312 -1.5938,0.60938 -0.375,0.39844 -0.5625,0.94922 -0.5625,1.6562 0,0.71875 0.1875,1.2812 0.5625,1.6875 0.38281,0.39844 0.91406,0.59375 1.5938,0.59375 0.38281,0 0.75,-0.054687 1.0938,-0.17188 0.34375,-0.11328 0.66016,-0.28516 0.95312,-0.51562 v 2.0156 C 6.9727,-0.08213 6.58208,0.01943 6.18752,0.09365 5.8008,0.163962 5.41018,0.20303 5.01562,0.20303 c -1.3867,0 -2.4688,-0.35156 -3.25,-1.0625 -0.77344,-0.70703 -1.1562,-1.6953 -1.1562,-2.9688 0,-1.2578 0.38281,-2.2422 1.1562,-2.9531 0.78125,-0.70703 1.8633,-1.0625 3.25,-1.0625 0.39453,0 0.78516,0.039062 1.1719,0.10938 0.39453,0.074219 0.78516,0.17969 1.1719,0.3125 z"
         id="path71" />
    </symbol>
  </defs>
  <path
     d="m 324.62,463.54 c -29.211,0 -52.973,-23.758 -52.973,-52.973 0,-29.207 23.762,-52.973 52.973,-52.973 29.211,0 52.973,23.766 52.973,52.973 0,29.211 -23.762,52.973 -52.973,52.973 z m 0,-86.492 c -18.48,0 -33.516,15.035 -33.516,33.516 0,18.481 15.035,33.516 33.516,33.516 18.481,0 33.512,-15.035 33.512,-33.516 0.004,-18.477 -15.031,-33.516 -33.512,-33.516 z"
     id="path76"
     style="fill:#c3a95a;fill-opacity:1" />
  <path
     d="M 377.6,414.07 H 358.139 V 184.61 h 26.734 l 27.094,27.09 c 6.957,6.9609 12.398,15.098 16.168,24.195 3.7734,9.1094 5.6797,18.719 5.6797,28.559 v 5.5664 h -19.461 v -5.5664 c 0,-7.2773 -1.4102,-14.379 -4.1953,-21.105 -2.7891,-6.7227 -6.8086,-12.738 -11.953,-17.879 l -20.609,-20.609 z"
     id="path78"
     style="fill:#c3a95a;fill-opacity:1" />
  <path
     d="m 125.09,444.08 h 113.04 v 19.457 H 125.09 Z"
     id="path80"
     style="fill:#c3a95a;fill-opacity:1" />
  <path
     d="m 125.09,400.84 h 113.04 v 19.457 H 125.09 Z"
     id="path82"
     style="fill:#c3a95a;fill-opacity:1" />
  <path
     d="m 125.09,357.59 h 113.04 v 19.457 H 125.09 Z"
     id="path84"
     style="fill:#c3a95a;fill-opacity:1" />
  <path
     d="m 125.09,314.35 h 199.53 v 19.461 H 125.09 Z"
     id="path86"
     style="fill:#c3a95a;fill-opacity:1" />
  <path
     d="m 125.09,271.1 h 199.53 v 19.461 H 125.09 Z"
     id="path88"
     style="fill:#c3a95a;fill-opacity:1" />
  <path
     d="m 125.09,227.86 h 199.53 v 19.461 H 125.09 Z"
     id="path90"
     style="fill:#c3a95a;fill-opacity:1" />
  <path
     d="m 125.09,184.61 h 199.53 v 19.461 H 125.09 Z"
     id="path92"
     style="fill:#c3a95a;fill-opacity:1" />
  <path
     d="m 125.09,88.141 h 21.621 v 19.461 H 125.09 Z"
     id="path94"
     style="fill:#c3a95a;fill-opacity:1" />
  <path
     d="m 168.34,88.141 h 21.621 v 19.461 H 168.34 Z"
     id="path96"
     style="fill:#c3a95a;fill-opacity:1" />
  <path
     d="m 211.58,88.141 h 21.621 v 19.461 H 211.58 Z"
     id="path98"
     style="fill:#c3a95a;fill-opacity:1" />
  <path
     d="M 487.88,560 H 72.12 V 0 h 321.9 l 93.859,93.844 z M 91.58,540.539 H 468.42 V 101.909 L 385.963,19.464 H 91.583 Z"
     id="path100"
     style="fill:#c3a95a;fill-opacity:1" />
  <path
     d="M 478.14,107.61 H 380.265 V 9.743 h 19.457 v 78.402 h 78.418 z"
     id="path102"
     style="fill:#c3a95a;fill-opacity:1" />
  <path
     style="fill:#ffffff;fill-opacity:1;stroke:none;stroke-width:0.64905"
     d="M 122.67038,373.20352 V 26.286509 h 192.11868 192.11868 v 58.73899 58.738991 h 58.73899 58.73899 V 431.94251 720.12054 H 373.52805 122.67038 Z m 195.36393,231.70802 v -13.30821 l -75.77654,0.16496 -75.77655,0.16495 -0.1757,13.14326 -0.1757,13.14325 h 75.95224 75.95225 z m 132.5397,11.1479 c 19.99214,-5.21948 36.45879,-18.60363 45.6533,-37.10719 1.95122,-3.92675 4.34934,-10.06027 5.32917,-13.63004 l 1.78149,-6.4905 0.32453,-142.34338 0.32452,-142.34339 16.26524,16.42777 c 16.07063,16.23122 19.81946,20.77429 23.98055,29.06123 4.93703,9.83227 7.27011,19.30245 7.88076,31.98869 l 0.42957,8.92443 h 13.20455 13.20456 l -5.4e-4,-4.70561 c -0.002,-17.39484 -3.80643,-33.99708 -11.07379,-48.32534 -6.20421,-12.23214 -9.55664,-16.28776 -33.01936,-39.94541 l -21.72494,-21.90542 h -18.04108 -18.04108 v 123.01908 123.01909 l -3.80476,-2.58377 c -8.59392,-5.83601 -19.39641,-10.15281 -29.42876,-11.76006 -6.9612,-1.11523 -21.37397,-0.48724 -28.18943,1.22827 -24.52064,6.17207 -44.48472,25.68445 -51.22192,50.06302 -2.49987,9.04575 -2.93013,23.54423 -0.97912,32.99269 4.33146,20.97655 17.70401,38.71268 36.57488,48.50961 11.95242,6.20516 20.55592,8.14717 34.53636,7.79567 7.76258,-0.19516 11.01249,-0.5781 16.0353,-1.88944 z M 317.88549,547.31108 317.70978,534.16783 H 242.0955 166.48122 l -0.1757,13.14325 -0.1757,13.14326 h 75.96568 75.96569 z m 0,-57.44089 0.1757,-13.14325 H 242.10895 166.1567 v 12.87281 c 0,7.08006 0.19593,13.06875 0.43539,13.30821 0.23947,0.23947 34.33891,0.36117 75.77654,0.27044 l 75.34115,-0.16495 z m 115.0306,-57.60315 V 418.96152 H 299.53639 166.1567 v 12.87282 c 0,7.08005 0.19471,13.06753 0.4327,13.30551 0.23798,0.23799 60.25884,0.43271 133.3797,0.43271 h 132.94699 z m 0,-57.76697 V 361.193 l -133.21743,0.16382 -133.21744,0.16381 -0.1771,12.31196 c -0.0974,6.77157 -0.0336,12.68604 0.14189,13.14325 0.25785,0.67196 25.82647,0.8313 133.39454,0.8313 h 133.07554 z m 0,-57.76541 v -13.30707 l -133.21743,0.16381 -133.21744,0.16382 -0.1771,12.31196 c -0.0974,6.77157 -0.0336,12.68603 0.14189,13.14325 0.25785,0.67195 25.82647,0.8313 133.39454,0.8313 h 133.07554 z m 0,-57.76542 v -13.30707 l -133.21743,0.16382 -133.21744,0.16381 -0.1757,13.14326 -0.1757,13.14325 H 299.52295 432.91609 Z M 196.01298,130.44679 v -13.31771 l -14.76588,0.17445 -14.76588,0.17445 -0.1771,12.31196 c -0.0974,6.77157 -0.0336,12.68604 0.14189,13.14325 0.24623,0.64167 3.65502,0.8313 14.94299,0.8313 h 14.62398 z m 57.76542,0.0122 v -13.30552 h -14.92814 -14.92815 v 13.30552 13.30552 h 14.92815 14.92814 z m 57.76541,0 v -13.30552 h -14.92814 -14.92814 v 13.30552 13.30552 h 14.92814 14.92814 z"
     id="path2110"
     transform="scale(0.75)" />
  <path
     style="fill:#ffffff;fill-opacity:1;stroke:none;stroke-width:0.64905"
     d="M 533.51878,81.295676 V 45.437898 l 35.69773,35.693303 c 19.63375,19.631319 35.69773,35.767319 35.69773,35.857779 0,0.0905 -16.06398,0.16447 -35.69773,0.16447 h -35.69773 z"
     id="path2260"
     transform="scale(0.75)" />
  <path
     style="fill:#ffffff;fill-opacity:1;stroke:none;stroke-width:0.64905"
     d="m 421.99687,590.2921 c -12.7467,-3.33908 -23.36556,-12.0072 -29.01111,-23.68163 -2.98702,-6.17685 -4.18403,-11.7332 -4.19545,-19.4747 -0.0183,-12.41994 3.90676,-21.77196 12.95297,-30.86213 9.5332,-9.57952 19.43889,-13.37782 33.34558,-12.78625 11.84923,0.50405 20.82088,4.51254 29.31552,13.09803 20.90388,21.12744 15.03876,56.62978 -11.60423,70.24192 -9.30217,4.75255 -20.90509,6.05766 -30.80328,3.46476 z"
     id="path2299"
     transform="scale(0.75)" />
</svg>
