<?xml version="1.0" encoding="UTF-8" standalone="no"?>
<svg
   width="560pt"
   height="560pt"
   version="1.1"
   viewBox="0 0 560 560"
   id="svg186"
   sodipodi:docname="icon.svg"
   inkscape:export-filename="C:\Users\egger\Workspace\MusiScore\icon-64.png"
   inkscape:export-xdpi="6.5799999"
   inkscape:export-ydpi="6.5799999"
   inkscape:version="1.1.2 (0a00cf5339, 2022-02-04, custom)"
   xmlns:inkscape="http://www.inkscape.org/namespaces/inkscape"
   xmlns:sodipodi="http://sodipodi.sourceforge.net/DTD/sodipodi-0.dtd"
   xmlns="http://www.w3.org/2000/svg"
   xmlns:svg="http://www.w3.org/2000/svg">
  <sodipodi:namedview
     id="namedview188"
     pagecolor="#ffffff"
     bordercolor="#666666"
     borderopacity="1.0"
     inkscape:pageshadow="2"
     inkscape:pageopacity="0.0"
     inkscape:pagecheckerboard="true"
     inkscape:document-units="pt"
     showgrid="false"
     fit-margin-top="0"
     fit-margin-left="0"
     fit-margin-right="0"
     fit-margin-bottom="0"
     inkscape:zoom="0.77035714"
     inkscape:cx="277.79323"
     inkscape:cy="438.10848"
     inkscape:window-width="2560"
     inkscape:window-height="1346"
     inkscape:window-x="-11"
     inkscape:window-y="-11"
     inkscape:window-maximized="1"
     inkscape:current-layer="svg186" />
  <defs
     id="defs74">
    <symbol
       id="x"
       overflow="visible">
      <path
         d="M 9.375,-0.5625 C 8.89453,-0.3125 8.39062,-0.125 7.8594,0 7.33596,0.13281 6.7969,0.20312 6.2344,0.20312 c -1.7109,0 -3.0586,-0.47266 -4.0469,-1.4219 -0.99219,-0.95703 -1.4844,-2.25 -1.4844,-3.875 0,-1.6328 0.49219,-2.9258 1.4844,-3.875 0.98828,-0.94531 2.3359,-1.4219 4.0469,-1.4219 0.5625,0 1.1016,0.0625 1.625,0.1875 0.53125,0.125 1.0352,0.32031 1.5156,0.57812 v 2.1094 C 8.88281,-7.84769 8.39844,-8.09378 7.9219,-8.25004 7.45315,-8.40629 6.95706,-8.48442 6.4375,-8.48442 c -0.9375,0 -1.6797,0.30469 -2.2188,0.90625 -0.53125,0.60547 -0.79688,1.4336 -0.79688,2.4844 0,1.0547 0.26562,1.8828 0.79688,2.4844 0.53906,0.60547 1.2812,0.90625 2.2188,0.90625 0.51953,0 1.0156,-0.078125 1.4844,-0.23438 0.47656,-0.15625 0.96094,-0.39844 1.4531,-0.73438 z"
         id="path2" />
    </symbol>
    <symbol
       id="d"
       overflow="visible">
      <path
         d="M 6.8594,-5.5781 C 6.64846,-5.67185 6.43752,-5.73826 6.21878,-5.78122 6.00784,-5.832001 5.7969,-5.859345 5.57816,-5.859345 c -0.625,0 -1.1094,0.20312 -1.4531,0.60938 -0.33594,0.39844 -0.5,0.96875 -0.5,1.7188 v 3.5312 h -2.4531 v -7.6562 h 2.4531 v 1.25 c 0.3125,-0.5 0.67188,-0.86328 1.0781,-1.0938 0.40625,-0.22656 0.89453,-0.34375 1.4688,-0.34375 0.082031,0 0.17188,0.00781 0.26562,0.015625 0.09375,0 0.23438,0.015625 0.42188,0.046875 z"
         id="path5" />
    </symbol>
    <symbol
       id="a"
       overflow="visible">
      <path
         d="m 8.8125,-3.8438 v 0.6875 H 3.0937 c 0.0625,0.57422 0.26953,1.0078 0.625,1.2969 0.35156,0.29297 0.84766,0.4375 1.4844,0.4375 0.51953,0 1.0508,-0.078125 1.5938,-0.23438 0.53906,-0.15625 1.0938,-0.39062 1.6562,-0.70312 v 1.8906 c -0.57422,0.21875 -1.1523,0.38672 -1.7344,0.5 -0.57422,0.11328 -1.1523,0.17188 -1.7344,0.17188 -1.3867,0 -2.4648,-0.35156 -3.2344,-1.0625 -0.76172,-0.70703 -1.1406,-1.6953 -1.1406,-2.9688 0,-1.2383 0.375,-2.2188 1.125,-2.9375 0.75,-0.7187 1.7852,-1.0781 3.1094,-1.0781 1.207,0 2.1719,0.36719 2.8906,1.0938 0.71875,0.71875 1.0781,1.6875 1.0781,2.9062 z M 6.2969,-4.6563 c 0,-0.46875 -0.13672,-0.84375 -0.40625,-1.125 -0.27344,-0.28906 -0.625,-0.4375 -1.0625,-0.4375 -0.46875,0 -0.85547,0.13672 -1.1562,0.40625 -0.29297,0.26172 -0.47656,0.64844 -0.54688,1.1562 z"
         id="path8" />
    </symbol>
    <symbol
       id="c"
       overflow="visible">
      <path
         d="m 4.6094,-3.4531 c -0.51172,0 -0.89844,0.089844 -1.1562,0.26562 -0.26172,0.17969 -0.39062,0.43359 -0.39062,0.76562 0,0.3125 0.10156,0.55859 0.3125,0.73438 0.20703,0.17969 0.5,0.26562 0.875,0.26562 0.45703,0 0.84375,-0.16406 1.1562,-0.5 0.3125,-0.33203 0.46875,-0.75 0.46875,-1.25 V -3.45311 Z M 8.3438,-4.37498 V 2e-5 H 5.875 v -1.1406 c -0.32422,0.46875 -0.69531,0.8125 -1.1094,1.0312 -0.40625,0.20703 -0.90234,0.3125 -1.4844,0.3125 -0.80469,0 -1.4492,-0.22656 -1.9375,-0.6875 -0.49219,-0.46875 -0.73438,-1.0703 -0.73438,-1.8125 0,-0.89453 0.30469,-1.5508 0.92188,-1.9688 0.61328,-0.42578 1.582,-0.64062 2.9062,-0.64062 h 1.4375 v -0.1875 c 0,-0.38281 -0.15234,-0.66406 -0.45312,-0.84375 -0.30469,-0.1875 -0.77734,-0.28125 -1.4219,-0.28125 -0.53125,0 -1.0234,0.054688 -1.4688,0.15625 -0.44922,0.10547 -0.87109,0.26562 -1.2656,0.48438 v -1.875 c 0.53125,-0.125 1.0547,-0.21875 1.5781,-0.28125 0.53125,-0.070313 1.0625,-0.10938 1.5938,-0.10938 1.3828,0 2.3789,0.27734 2.9844,0.82812 0.61328,0.54297 0.92188,1.4219 0.92188,2.6406 z"
         id="path11" />
    </symbol>
    <symbol
       id="b"
       overflow="visible">
      <path
         d="m 3.8438,-9.8281 v 2.1719 H 6.375 v 1.75 H 3.8438 v 3.25 c 0,0.35547 0.066406,0.59375 0.20312,0.71875 0.14453,0.125 0.42969,0.1875 0.85938,0.1875 h 1.25 V 5e-5 H 4.0625 C 3.09375,5e-5 2.4063,-0.19526 2,-0.5937 1.60156,-0.99995 1.40625,-1.6875 1.40625,-2.6562 v -3.25 h -1.2188 v -1.75 h 1.2188 v -2.1719 z"
         id="path14" />
    </symbol>
    <symbol
       id="m"
       overflow="visible">
      <path
         d="m 6.3906,-6.5312 v -4.1094 H 8.8437 V 4e-4 H 6.3906 V -1.109 c -0.34375,0.44922 -0.71875,0.78125 -1.125,1 -0.40625,0.20703 -0.875,0.3125 -1.4062,0.3125 -0.9375,0 -1.7148,-0.375 -2.3281,-1.125 -0.60547,-0.75 -0.90625,-1.7188 -0.90625,-2.9062 0,-1.1758 0.30078,-2.1406 0.90625,-2.8906 0.61328,-0.75 1.3906,-1.125 2.3281,-1.125 0.53125,0 1,0.10938 1.4062,0.32812 0.40625,0.21094 0.78125,0.53906 1.125,0.98438 z m -1.625,4.9531 c 0.53125,0 0.92969,-0.19141 1.2031,-0.57812 0.28125,-0.38281 0.42188,-0.94141 0.42188,-1.6719 0,-0.72656 -0.14062,-1.2812 -0.42188,-1.6562 -0.27344,-0.38281 -0.67188,-0.57812 -1.2031,-0.57812 -0.51172,0 -0.90625,0.19531 -1.1875,0.57812 -0.27344,0.375 -0.40625,0.92969 -0.40625,1.6562 0,0.73047 0.13281,1.2891 0.40625,1.6719 0.28125,0.38672 0.67578,0.57812 1.1875,0.57812 z"
         id="path17" />
    </symbol>
    <symbol
       id="l"
       overflow="visible">
      <path
         d="m 5.25,-1.5781 c 0.51953,0 0.91406,-0.19141 1.1875,-0.57812 0.28125,-0.38281 0.42188,-0.94141 0.42188,-1.6719 0,-0.72656 -0.14062,-1.2812 -0.42188,-1.6562 C 6.16406,-5.86713 5.76953,-6.06244 5.25,-6.06244 c -0.52344,0 -0.92188,0.19531 -1.2031,0.57812 -0.28125,0.38672 -0.42188,0.9375 -0.42188,1.6562 0,0.73047 0.14062,1.2891 0.42188,1.6719 C 4.32815,-1.7695 4.72659,-1.5781 5.25,-1.5781 Z M 3.625,-6.5312 c 0.33203,-0.44531 0.70312,-0.77344 1.1094,-0.98438 0.41406,-0.21875 0.89062,-0.32812 1.4219,-0.32812 0.94531,0 1.7227,0.375 2.3281,1.125 0.60156,0.75 0.90625,1.7148 0.90625,2.8906 0,1.1875 -0.30469,2.1562 -0.90625,2.9062 -0.60547,0.75 -1.3828,1.125 -2.3281,1.125 -0.53125,0 -1.0078,-0.10547 -1.4219,-0.3125 -0.40625,-0.21875 -0.77734,-0.55078 -1.1094,-1 V 0 H 1.1719 V -10.641 H 3.625 Z"
         id="path20" />
    </symbol>
    <symbol
       id="k"
       overflow="visible">
      <path
         d="m 0.17188,-7.6562 h 2.4531 l 2.0469,5.1875 1.75,-5.1875 h 2.4531 l -3.2188,8.375 C 5.33196,1.57036 4.95306,2.1641 4.51558,2.5 4.08589,2.84375 3.51949,3.01562 2.81248,3.01562 H 1.40628 V 1.42182 H 2.1719 c 0.41406,0 0.71875,-0.070313 0.90625,-0.20312 0.1875,-0.13672 0.33203,-0.375 0.4375,-0.71875 l 0.0625,-0.20312 z"
         id="path23" />
    </symbol>
    <symbol
       id="j"
       overflow="visible">
      <path
         d="m 1.2812,-10.203 h 3.3594 l 2.3125,5.4531 2.3438,-5.4531 h 3.3438 V 0 h -2.4844 v -7.4688 l -2.3594,5.5 H 6.125 l -2.3438,-5.5 V 0 h -2.5 z"
         id="path26" />
    </symbol>
    <symbol
       id="w"
       overflow="visible">
      <path
         d="M 3.1094,-3.9219 0.3438,-7.6563 h 2.5938 l 1.5625,2.2656 1.5938,-2.2656 H 8.6877 L 5.9221,-3.9375 8.8127,0 H 6.2346 L 4.5002,-2.4219 2.7971,0 H 0.219 Z"
         id="path29" />
    </symbol>
    <symbol
       id="f"
       overflow="visible">
      <path
         d="M 1.1719,-7.6562 H 3.625 V 0 H 1.1719 Z m 0,-2.9844 H 3.625 v 2 H 1.1719 Z"
         id="path32" />
    </symbol>
    <symbol
       id="i"
       overflow="visible">
      <path
         d="m 8.2656,-6.3906 c 0.3125,-0.46875 0.67969,-0.82812 1.1094,-1.0781 0.42578,-0.25 0.89453,-0.375 1.4062,-0.375 0.875,0 1.5391,0.27344 2,0.8125 0.46875,0.54297 0.70312,1.3359 0.70312,2.375 V 0 h -2.4688 v -4 c 0.0078,-0.050781 0.01563,-0.10938 0.01563,-0.17188 v -0.28125 c 0,-0.53906 -0.07813,-0.92969 -0.23438,-1.1719 -0.15625,-0.25 -0.41797,-0.375 -0.78125,-0.375 -0.46094,0 -0.82031,0.19531 -1.0781,0.57812 -0.25,0.38672 -0.38281,0.9375 -0.39062,1.6562 v 3.7656 H 6.0937 v -4 c 0,-0.84375 -0.074219,-1.3828 -0.21875,-1.625 -0.14844,-0.25 -0.40625,-0.375 -0.78125,-0.375 -0.46875,0 -0.83594,0.19531 -1.0938,0.57812 -0.25,0.38672 -0.375,0.9375 -0.375,1.6562 v 3.7656 H 1.1561 v -7.6562 h 2.4688 v 1.125 c 0.30078,-0.4375 0.64453,-0.76562 1.0312,-0.98438 0.39453,-0.21875 0.82812,-0.32812 1.2969,-0.32812 0.51953,0 0.98438,0.13281 1.3906,0.39062 0.40625,0.25 0.71094,0.60547 0.92188,1.0625 z"
         id="path35" />
    </symbol>
    <symbol
       id="v"
       overflow="visible">
      <path
         d="m 5.375,-6.25 c 0.41406,0 0.72656,-0.085938 0.9375,-0.26562 0.21875,-0.1875 0.32812,-0.45703 0.32812,-0.8125 0,-0.35156 -0.10938,-0.625 -0.32812,-0.8125 C 6.10156,-8.32812 5.78906,-8.42187 5.375,-8.42187 H 3.9219 v 2.1719 z m 0.09375,4.4531 c 0.51953,0 0.91406,-0.10938 1.1875,-0.32812 0.26953,-0.22656 0.40625,-0.56641 0.40625,-1.0156 0,-0.4375 -0.13672,-0.76562 -0.40625,-0.98438 C 6.39453,-4.35156 6,-4.46875 5.46875,-4.46875 h -1.5469 v 2.6719 z m 2.4375,-3.6719 c 0.5625,0.16797 1,0.47656 1.3125,0.92188 0.3125,0.4375 0.46875,0.98047 0.46875,1.625 0,0.98047 -0.33594,1.7148 -1,2.2031 C 8.01953,-0.23835 7.0078,-7e-5 5.6563,-7e-5 h -4.375 v -10.203 h 3.9531 c 1.4141,0 2.4414,0.21484 3.0781,0.64062 0.63281,0.42969 0.95312,1.1172 0.95312,2.0625 0,0.49219 -0.11719,0.91406 -0.34375,1.2656 -0.23047,0.34375 -0.57031,0.60156 -1.0156,0.76562 z"
         id="path38" />
    </symbol>
    <symbol
       id="h"
       overflow="visible">
      <path
         d="m 7.1562,-7.4219 v 1.8594 C 6.63276,-5.78125 6.1289,-5.94141 5.6406,-6.04688 5.14841,-6.16016 4.69138,-6.21876 4.2656,-6.21876 c -0.46875,0 -0.82031,0.0625 -1.0469,0.1875 -0.21875,0.11719 -0.32812,0.29297 -0.32812,0.53125 0,0.19922 0.082031,0.35156 0.25,0.45312 0.16406,0.10547 0.47266,0.18359 0.92188,0.23438 l 0.42188,0.046875 c 1.2578,0.16797 2.1016,0.43359 2.5312,0.79688 0.4375,0.36719 0.65625,0.9375 0.65625,1.7188 0,0.8125 -0.30469,1.4297 -0.90625,1.8438 -0.60547,0.40625 -1.5,0.60938 -2.6875,0.60938 -0.51172,0 -1.0391,-0.042969 -1.5781,-0.125 -0.53125,-0.082031 -1.0859,-0.20312 -1.6562,-0.35938 v -1.8594 c 0.48828,0.24219 0.98828,0.42188 1.5,0.54688 0.50781,0.11719 1.0312,0.17188 1.5625,0.17188 0.47656,0 0.83594,-0.066406 1.0781,-0.20312 0.23828,-0.13281 0.35938,-0.33203 0.35938,-0.59375 0,-0.21875 -0.085938,-0.37891 -0.25,-0.48438 -0.16797,-0.10156 -0.49609,-0.1875 -0.98438,-0.25 l -0.4375,-0.0625 c -1.0938,-0.13281 -1.8594,-0.38281 -2.2969,-0.75 -0.4375,-0.375 -0.65625,-0.9375 -0.65625,-1.6875 0,-0.8125 0.27344,-1.4102 0.82812,-1.7969 0.5625,-0.39453 1.4141,-0.59375 2.5625,-0.59375 0.45703,0 0.92969,0.039062 1.4219,0.10938 0.5,0.0625 1.0391,0.16797 1.625,0.3125 z"
         id="path41" />
    </symbol>
    <symbol
       id="g"
       overflow="visible">
      <path
         d="M 8.875,-4.6562 V 0 H 6.4062 v -3.5625 c 0,-0.66406 -0.015625,-1.125 -0.046875,-1.375 -0.023437,-0.25 -0.070313,-0.42969 -0.14062,-0.54688 -0.09375,-0.16406 -0.22656,-0.28906 -0.39062,-0.375 C 5.660115,-5.95313 5.472615,-6 5.265585,-6 c -0.51172,0 -0.91406,0.19922 -1.2031,0.59375 -0.29297,0.39844 -0.4375,0.94531 -0.4375,1.6406 V -5e-5 h -2.4531 v -7.6562 h 2.4531 v 1.125 c 0.36328,-0.44531 0.75391,-0.77344 1.1719,-0.98438 0.41406,-0.21875 0.875,-0.32812 1.375,-0.32812 0.88281,0 1.5547,0.27344 2.0156,0.8125 0.45703,0.54297 0.6875,1.3359 0.6875,2.375 z"
         id="path44" />
    </symbol>
    <symbol
       id="u"
       overflow="visible">
      <path
         d="M 1.1719,-10.641 H 3.625 v 5.7969 L 6.4375,-7.6566 H 9.2813 L 5.5469,-4.141 9.5781,-4e-4 H 6.6093 L 3.6249,-3.1879 V -4e-4 H 1.1718 Z"
         id="path47" />
    </symbol>
    <symbol
       id="t"
       overflow="visible">
      <path
         d="m 6.2188,-10.641 v 1.6094 H 4.8594 c -0.34375,0 -0.58594,0.0625 -0.71875,0.1875 -0.13672,0.125 -0.20312,0.34375 -0.20312,0.65625 v 0.53125 h 2.0781 v 1.75 H 3.93753 V -4e-4 h -2.4531 v -5.9062 h -1.2188 v -1.75 h 1.2188 v -0.53125 c 0,-0.83203 0.22656,-1.4453 0.6875,-1.8438 0.46875,-0.40625 1.1914,-0.60938 2.1719,-0.60938 z"
         id="path50" />
    </symbol>
    <symbol
       id="e"
       overflow="visible">
      <path
         d="m 4.8125,-6.0938 c -0.54297,0 -0.95312,0.19922 -1.2344,0.59375 -0.28125,0.38672 -0.42188,0.94531 -0.42188,1.6719 0,0.74219 0.14062,1.3086 0.42188,1.7031 0.28125,0.38672 0.69141,0.57812 1.2344,0.57812 0.53906,0 0.95312,-0.19141 1.2344,-0.57812 0.28125,-0.39453 0.42188,-0.96094 0.42188,-1.7031 0,-0.72656 -0.14062,-1.2852 -0.42188,-1.6719 C 5.76565,-5.89458 5.35159,-6.0938 4.8125,-6.0938 Z m 0,-1.75 c 1.3203,0 2.3516,0.35938 3.0938,1.0781 0.73828,0.71094 1.1094,1.6875 1.1094,2.9375 0,1.2617 -0.37109,2.25 -1.1094,2.9688 C 7.16411,-0.14846 6.1329,0.2031 4.8125,0.2031 3.5,0.2031 2.4687,-0.14846 1.7187,-0.8594 0.97651,-1.57815 0.6093,-2.5664 0.6093,-3.8282 c 0,-1.25 0.36719,-2.2266 1.1094,-2.9375 0.75,-0.71875 1.7812,-1.0781 3.0938,-1.0781 z"
         id="path53" />
    </symbol>
    <symbol
       id="s"
       overflow="visible">
      <path
         d="M 8.875,-4.6562 V 0 H 6.4062 v -3.5625 c 0,-0.66406 -0.015625,-1.125 -0.046875,-1.375 -0.023437,-0.25 -0.070313,-0.42969 -0.14062,-0.54688 -0.09375,-0.16406 -0.22656,-0.28906 -0.39062,-0.375 C 5.660115,-5.95313 5.472615,-6 5.265585,-6 c -0.51172,0 -0.91406,0.19922 -1.2031,0.59375 -0.29297,0.39844 -0.4375,0.94531 -0.4375,1.6406 V -5e-5 h -2.4531 v -10.641 h 2.4531 v 4.1094 c 0.36328,-0.44531 0.75391,-0.77344 1.1719,-0.98438 0.41406,-0.21875 0.875,-0.32812 1.375,-0.32812 0.88281,0 1.5547,0.27344 2.0156,0.8125 0.45703,0.54297 0.6875,1.3359 0.6875,2.375 z"
         id="path56" />
    </symbol>
    <symbol
       id="r"
       overflow="visible">
      <path
         d="m 1.2812,-10.203 h 2.9375 l 3.7188,7 v -7 h 2.5 V 0 H 7.5 L 3.7812,-7 v 7 h -2.5 z"
         id="path59" />
    </symbol>
    <symbol
       id="q"
       overflow="visible">
      <path
         d="m 1.0938,-2.9844 v -4.6719 h 2.4688 v 0.76562 c 0,0.41797 -0.00781,0.9375 -0.015625,1.5625 v 1.25 c 0,0.61719 0.015625,1.0586 0.046875,1.3281 0.03125,0.27344 0.082031,0.46875 0.15625,0.59375 0.10156,0.15625 0.23438,0.28125 0.39062,0.375 0.16406,0.085938 0.35156,0.125 0.5625,0.125 0.50781,0 0.91016,-0.19141 1.2031,-0.57812 0.28906,-0.39453 0.4375,-0.94141 0.4375,-1.6406 v -3.7812 h 2.4531 V -5e-5 h -2.4531 v -1.1094 c -0.36719,0.44922 -0.75781,0.78125 -1.1719,1 -0.41797,0.20703 -0.87109,0.3125 -1.3594,0.3125 -0.88672,0 -1.5625,-0.26953 -2.0312,-0.8125 -0.46094,-0.53906 -0.6875,-1.332 -0.6875,-2.375 z"
         id="path62" />
    </symbol>
    <symbol
       id="p"
       overflow="visible">
      <path
         d="m 1.2812,-10.203 h 4.375 c 1.3008,0 2.2969,0.28906 2.9844,0.85938 0.69531,0.57422 1.0469,1.3984 1.0469,2.4688 0,1.0742 -0.35156,1.8984 -1.0469,2.4688 C 7.9531,-3.8318 6.957,-3.54664 5.6562,-3.54664 H 3.9218 V 2.6e-4 H 1.2812 Z m 2.6406,1.9062 v 2.8438 h 1.4531 c 0.50781,0 0.89844,-0.11719 1.1719,-0.35938 0.28125,-0.25 0.42188,-0.60156 0.42188,-1.0625 0,-0.45703 -0.14062,-0.80469 -0.42188,-1.0469 -0.27344,-0.25 -0.66406,-0.375 -1.1719,-0.375 z"
         id="path65" />
    </symbol>
    <symbol
       id="o"
       overflow="visible">
      <path
         d="M 1.1719,-7.6562 H 3.625 v 7.5156 c 0,1.0312 -0.25,1.8125 -0.75,2.3438 C 2.38281,2.74226 1.6758,3.0157 0.75,3.0157 H -0.4688 V 1.4219 h 0.42188 c 0.46875,0 0.78516,-0.10938 0.95312,-0.32812 0.17578,-0.21094 0.26562,-0.62109 0.26562,-1.2344 z m 0,-2.9844 H 3.625 v 2 H 1.1719 Z"
         id="path68" />
    </symbol>
    <symbol
       id="n"
       overflow="visible">
      <path
         d="m 7.3594,-7.4219 v 2 c -0.33594,-0.22656 -0.66797,-0.39453 -1,-0.5 -0.33594,-0.11328 -0.68359,-0.17188 -1.0469,-0.17188 -0.67969,0 -1.2109,0.20312 -1.5938,0.60938 -0.375,0.39844 -0.5625,0.94922 -0.5625,1.6562 0,0.71875 0.1875,1.2812 0.5625,1.6875 0.38281,0.39844 0.91406,0.59375 1.5938,0.59375 0.38281,0 0.75,-0.054687 1.0938,-0.17188 0.34375,-0.11328 0.66016,-0.28516 0.95312,-0.51562 v 2.0156 C 6.9727,-0.08213 6.58208,0.01943 6.18752,0.09365 5.8008,0.163962 5.41018,0.20303 5.01562,0.20303 c -1.3867,0 -2.4688,-0.35156 -3.25,-1.0625 -0.77344,-0.70703 -1.1562,-1.6953 -1.1562,-2.9688 0,-1.2578 0.38281,-2.2422 1.1562,-2.9531 0.78125,-0.70703 1.8633,-1.0625 3.25,-1.0625 0.39453,0 0.78516,0.039062 1.1719,0.10938 0.39453,0.074219 0.78516,0.17969 1.1719,0.3125 z"
         id="path71" />
    </symbol>
  </defs>
  <g
     id="g1153"
     transform="translate(-70)"
     style="fill:#000000;fill-opacity:1">
    <path
       d="m 394.62,463.54 c -29.211,0 -52.973,-23.758 -52.973,-52.973 0,-29.207 23.762,-52.973 52.973,-52.973 29.211,0 52.973,23.766 52.973,52.973 0,29.211 -23.762,52.973 -52.973,52.973 z m 0,-86.492 c -18.48,0 -33.516,15.035 -33.516,33.516 0,18.481 15.035,33.516 33.516,33.516 18.481,0 33.512,-15.035 33.512,-33.516 0.004,-18.477 -15.031,-33.516 -33.512,-33.516 z"
       id="path76"
       style="fill:#000000;fill-opacity:1" />
    <path
       d="M 447.6,414.07 H 428.139 V 184.61 h 26.734 l 27.094,27.09 c 6.957,6.9609 12.398,15.098 16.168,24.195 3.7734,9.1094 5.6797,18.719 5.6797,28.559 v 5.5664 h -19.461 v -5.5664 c 0,-7.2773 -1.4102,-14.379 -4.1953,-21.105 -2.7891,-6.7227 -6.8086,-12.738 -11.953,-17.879 l -20.609,-20.609 z"
       id="path78"
       style="fill:#000000;fill-opacity:1" />
    <path
       d="m 195.09,444.08 h 113.04 v 19.457 H 195.09 Z"
       id="path80"
       style="fill:#000000;fill-opacity:1" />
    <path
       d="m 195.09,400.84 h 113.04 v 19.457 H 195.09 Z"
       id="path82"
       style="fill:#000000;fill-opacity:1" />
    <path
       d="m 195.09,357.59 h 113.04 v 19.457 H 195.09 Z"
       id="path84"
       style="fill:#000000;fill-opacity:1" />
    <path
       d="m 195.09,314.35 h 199.53 v 19.461 H 195.09 Z"
       id="path86"
       style="fill:#000000;fill-opacity:1" />
    <path
       d="m 195.09,271.1 h 199.53 v 19.461 H 195.09 Z"
       id="path88"
       style="fill:#000000;fill-opacity:1" />
    <path
       d="m 195.09,227.86 h 199.53 v 19.461 H 195.09 Z"
       id="path90"
       style="fill:#000000;fill-opacity:1" />
    <path
       d="m 195.09,184.61 h 199.53 v 19.461 H 195.09 Z"
       id="path92"
       style="fill:#000000;fill-opacity:1" />
    <path
       d="m 195.09,88.141 h 21.621 v 19.461 H 195.09 Z"
       id="path94"
       style="fill:#000000;fill-opacity:1" />
    <path
       d="m 238.34,88.141 h 21.621 v 19.461 H 238.34 Z"
       id="path96"
       style="fill:#000000;fill-opacity:1" />
    <path
       d="m 281.58,88.141 h 21.621 v 19.461 H 281.58 Z"
       id="path98"
       style="fill:#000000;fill-opacity:1" />
    <path
       d="M 557.88,560 H 142.12 V 0 h 321.9 l 93.859,93.844 z M 161.58,540.539 H 538.42 V 101.909 L 455.963,19.464 h -294.38 z"
       id="path100"
       style="fill:#000000;fill-opacity:1" />
    <path
       d="M 548.14,107.61 H 450.265 V 9.743 h 19.457 v 78.402 h 78.418 z"
       id="path102"
       style="fill:#000000;fill-opacity:1" />
  </g>
  <path
     style="fill:#ffffff;fill-opacity:1;stroke:#424280;stroke-width:1.2981"
     d="M 123.31943,373.20352 V 26.611034 h 191.46963 191.46963 v 59.063514 59.063512 h 59.06352 59.06351 V 432.26704 719.79601 H 373.85257 123.31943 Z M 318.03431,604.91423 V 591.28419 H 242.0955 166.1567 v 13.63004 13.63004 h 75.9388 75.93881 z m 138.91619,9.48669 c 17.15203,-6.2904 31.36692,-18.75126 39.0249,-34.20943 7.99635,-16.14121 7.65115,-8.79319 7.71141,-164.15069 l 0.0552,-142.14187 15.54798,15.87419 c 23.75101,24.24931 30.48469,36.67891 32.01233,59.09104 l 0.7742,11.35837 H 565.71 579.34349 l -0.76933,-13.30552 c -1.10979,-19.19365 -7.09578,-36.5654 -18.22754,-52.89754 -2.1898,-3.21279 -13.30596,-15.3338 -24.70257,-26.93556 L 514.92286,245.9898 h -19.26023 -19.26022 v 122.02133 c 0,67.11173 -0.27178,122.02132 -0.60397,122.02132 -0.33218,0 -3.39894,-1.77338 -6.81502,-3.94086 -14.34721,-9.10319 -38.36322,-12.22162 -55.53882,-7.21158 -21.80254,6.3597 -39.92683,23.22634 -47.60836,44.30477 -4.23501,11.62105 -4.83519,32.63935 -1.26666,44.35832 7.29658,23.96177 27.20128,43.10697 51.17545,49.22275 10.36813,2.64491 30.73203,1.47615 41.20547,-2.36493 z M 318.03431,547.79787 V 534.16783 H 242.0955 166.1567 v 13.63004 13.63004 h 75.9388 75.93881 z m 0,-58.41447 V 475.75336 H 242.0955 166.1567 v 13.63004 13.63004 h 75.9388 75.93881 z M 433.56514,432.26704 V 418.637 H 299.86092 166.1567 v 13.63004 13.63004 h 133.70422 133.70422 z m 0,-58.41447 V 360.22253 H 299.86092 166.1567 v 13.63004 13.63004 h 133.70422 133.70422 z m 0,-57.11636 V 303.10617 H 299.86092 166.1567 v 13.63004 13.63004 h 133.70422 133.70422 z m 0,-57.11637 V 245.9898 H 299.86092 166.1567 v 13.63004 13.63004 H 299.86092 433.56514 Z M 196.01298,131.10802 V 117.47798 H 181.08484 166.1567 v 13.63004 13.63004 h 14.92814 14.92814 z m 58.13535,-0.32452 0.36994,-13.30552 h -15.6226 -15.62261 v 12.76464 c 0,7.02055 0.40749,13.17212 0.90552,13.67016 0.49803,0.49803 7.36173,0.74142 15.25267,0.54087 l 14.34715,-0.36464 z m 57.39548,0.32452 v -13.63004 h -14.92814 -14.92814 v 13.63004 13.63004 h 14.92814 14.92814 z"
     id="path1466"
     transform="scale(0.75)" />
  <path
     style="fill:#ffffff;fill-opacity:1;stroke:#424280;stroke-width:1.2981"
     d="m 419.29304,589.19674 c -18.71253,-6.79633 -29.86328,-22.50511 -29.86328,-42.07035 0,-20.42597 13.26653,-37.09011 33.6444,-42.26087 18.86141,-4.78597 39.53887,5.02685 49.1854,23.34173 3.06628,5.82162 3.48207,8.07985 3.48756,18.94157 0.005,10.18313 -0.50377,13.36689 -2.92067,18.27148 -4.51526,9.16278 -11.0228,15.89398 -19.98277,20.6696 -6.78242,3.61499 -9.84678,4.43328 -17.94753,4.79259 -6.73273,0.29864 -11.58191,-0.22526 -15.60311,-1.68575 z"
     id="path1505"
     transform="scale(0.75)" />
  <path
     style="fill:#ffffff;fill-opacity:1;stroke:#424280;stroke-width:1.2981"
     d="M 533.51878,81.464577 V 45.451175 l 35.69772,35.680026 c 19.63375,19.624009 35.69773,35.830049 35.69773,36.013399 0,0.18336 -16.06398,0.33338 -35.69773,0.33338 h -35.69772 z"
     id="path1544"
     transform="scale(0.75)" />
</svg>
